<svg width="1000" height="1000" viewBox="0 0 1000 1000" xmlns="http://www.w3.org/2000/svg" xmlns:svg="http://www.w3.org/2000/svg" xmlns:xlink="http://www.w3.org/1999/xlink">
	<title>Star Wars Imperial Assault Die Faces</title>
	<defs>
		<style><![CDATA[
		.icon { display: none; }
		.icon:target { display: inline; }
		.used { fill: #EEE; }
	]]></style>
	</defs>
	<!-- Effect Icons -->
	<symbol id="blockIcon" viewBox="0 0 1000 1000"><!-- Done by hand -->
		<title>block</title>
		<path d="
			M 0 933
			Q 500 744, 1000 933
			Q 587 594, 500 67
			Q 413 594, 0 933
			Z
		" />
	</symbol>
	<symbol id="evadeIcon" viewBox="0 0 1000 1000"><!-- Illustrator rounded to whole numbers -->
		<title>evade</title>
		<path d="
			M 229 630
			c -54 -112 -34 -249 58 -342
			c 92 -92 230 -112 342 -58
			L 776 84
			C 582 -45 317 -24 146 147
			C -25 318 -46 583 83 777
			L 229 630
			Z

			M 770 372
			c 53 111 33 249 -59 341
			S 482 824 371 771
			L 224 918
			c 194 128 458 107 629 -64
			c 171 -171 192 -435 64 -629
			L 770 372
			Z
		" />
	</symbol>
	<symbol id="dodgeIcon" viewBox="0 0 1000 1000"><!-- Illustrator too lazy to round to whole numbers -->
		<title>dodge</title>
		<path d="
			M 917.056 225.365
			L 641.921 500.5
			l 275.135 275.135
			C 969.164 696.712 999.5 602.149 999.5 500.5
			S 969.164 304.288 917.056 225.365
			Z

			M 500.5 359.079
			L 775.835 83.745
			C 696.671 31.149 601.666 0.5 499.5 0.5
			c -101.649 0 -196.212 30.336 -275.135 82.444
			L 500.5 359.079
			Z

			M 359.079 500.5
			L 82.745 224.166
			C 30.149 303.329 -0.5 398.333 -0.5 500.5
			c 0 102.166 30.649 197.171 83.245 276.335
			L 359.079 500.5
			Z

			M 500.5 641.921
			L 224.365 918.056
			c 78.922 52.108 173.485 82.444 275.135 82.444
			c 102.166 0 197.171 -30.649 276.335 -83.244
			L 500.5 641.921
			Z
		" />
	</symbol>
	<symbol id="damageIcon" viewBox="0 0 1000 1000"><!-- Illustrator rounded to whole numbers -->
		<title>damage</title>
		<path d="
			M 900 500
			c 0 -80 -23 -154 -63 -216
			L 1000 0
			L 716 163
			C 654 123 580 100 500 100
			s -154 23 -216 63
			L -0 0
			l 163 284
			C 123 346 100 420 100 500
			s 23 154 63 216
			L 0 1000
			l 284 -163
			C 346 877 420 900 500 900
			s 154 -23 216 -63
			L 1000 1000
			L 837 716
			C 877 654 900 580 900 500
			Z

			M 800 800
			c 0 0 -200 -173 -300 -173
			S 200 800 200 800
			s 173 -200 173 -300
			S 200 200 200 200
			s 200 173 300 173
			S 800 200 800 200
			S 627 400 627 500
			S 800 800 800 800
			Z
		" />
	</symbol>
	<symbol id="surgeIcon" viewBox="0 0 1000 1000"><!-- Done by hand -->
		<title>surge</title>
		<path d="
			M 0 750
			L 325 250
			L 650 525
			L 1000 250
			L 675 750
			L 350 475
			L 0 750
			Z
		" />
	</symbol>
	<symbol id="rangeIcon" viewBox="0 0 1000 1000">
		<title>range</title>
		<text font-family="Impact" font-size="800" font-weight="bold">
			<tspan x="280" y="500" text-anchor="middle" alignment-baseline="central">0</tspan>
			<tspan x="760" y="500" text-anchor="middle" alignment-baseline="central">5</tspan>
		</text>
		<rect x="410" y="450" width="150" height="100" />
	</symbol>
	<!-- Effects -->
	<g id="damage" class="icon">
		<title>damage</title>
		<use xlink:href="#damageIcon" class="used"></use>
	</g>
	<g id="surge" class="icon">
		<title>surge</title>
		<use xlink:href="#surgeIcon" class="used"></use>
	</g>
	<g id="range" class="icon">
		<title>range</title>
		<use xlink:href="#rangeIcon" class="used"></use>
	</g>
	<g id="block" class="icon">
		<title>block</title>
		<use xlink:href="#blockIcon" class="used"></use>
	</g>
	<g id="evade" class="icon">
		<title>evade</title>
		<use xlink:href="#evadeIcon" class="used"></use>
	</g>
	<g id="dodge" class="icon">
		<title>dodge</title>
		<use xlink:href="#dodgeIcon" class="used"></use>
	</g>
</svg>