<svg width="1000" height="1000" viewBox="0 0 1000 1000" xmlns="http://www.w3.org/2000/svg" xmlns:svg="http://www.w3.org/2000/svg" xmlns:xlink="http://www.w3.org/1999/xlink">
	<defs>
		<filter id='inset-shadow'>
			<!-- Shadow Offset -->
			<feOffset
				dx='15'
				dy='15'
			/>
			<!-- Shadow Blur -->
			<feGaussianBlur
				stdDeviation='10'
				result='offset-blur'
			/>
			<!-- Invert the drop shadow to create an inner shadow -->
			<feComposite
				operator='out'
				in='SourceGraphic'
				in2='offset-blur'
				result='inverse'
			/>
			<!-- Color & Opacity -->
			<feFlood
				flood-color='black'
				flood-opacity='0.75'
				result='color'
			/>
			<!-- Clip color inside shadow -->
			<feComposite
				operator='in'
				in='color'
				in2='inverse'
				result='shadow'
			/>
			<!-- Put shadow over original object -->
			<feComposite
				operator='over'
				in='shadow'
				in2='SourceGraphic'
			/>
		</filter>
		<filter id='inset-highlight'>
			<!-- Shadow Offset -->
			<feOffset
				dx='-10'
				dy='-10'
			/>
			<!-- Shadow Blur -->
			<feGaussianBlur
				stdDeviation='10'
				result='offset-blur'
			/>
			<!-- Invert the drop shadow
				 to create an inner shadow -->
			<feComposite
				operator='out'
				in='SourceGraphic'
				in2='offset-blur'
				result='inverse'
			/>
			<!-- Color & Opacity -->
			<feFlood
				flood-color='white'
				flood-opacity='0.75'
				result='color'
			/>
			<!-- Clip color inside shadow -->
			<feComposite
				operator='in'
				in='color'
				in2='inverse'
				result='shadow'
			/>
			<!-- Put shadow over original object -->
			<feComposite
				operator='over'
				in='shadow'
				in2='SourceGraphic'
			/>
		</filter>
		<style><![CDATA[
		.icon { display: none; }
		.icon:target { display: inline; }
		.used { fill: #000; filter: url(#inset-highlight); }
		#off .used { fill: #EEE; filter: url(#inset-shadow); }
	]]></style>
	</defs>
	<!-- Icon -->
	<symbol id="icon">
		<path d="
			M229.438,890.065c2.612-2.874,5.127-5.846,7.884-8.573c1.109-1.099,2.783-1.606,4.132-2.487
			c1.221-0.797,2.666-1.514,3.46-2.651c2.764-3.954,6.779-3.936,10.883-3.861c0.574,0.01,1.149,0.001,2.041,0.001
			c0.307-4.228,2.995-5.158,6.716-5.881c3.117-0.604,5.119-3.757,5.757-6.958c0.918-4.609,3.676-7.704,7.6-9.592
			c4.819-2.316,9.884-4.139,14.889-6.055c6.06-2.32,11.969-4.771,17.318-8.659c3.238-2.354,7.362-3.462,11.001-5.302
			c1.394-0.705,2.417-2.184,3.833-2.798c3.026-1.314,6.199-2.295,9.509-3.484c0.621-2.853,1.181-5.457,4.898-6.825
			c2.256-0.832,3.496-4.38,5.23-6.678c2.439-3.231,5.468-4.658,9.745-4.52c3.419,0.111,6.877-1.236,10.334-1.846
			c0.983-0.175,2.023-0.026,3.449-0.026c1.067-1.812,2.246-3.997,3.616-6.053c0.689-1.035,1.565-2.188,2.638-2.688
			c5.253-2.45,6.698-7.568,8.812-12.202c1.721-3.771,3.688-7.514,4.748-11.479c1.245-4.66,1.631-9.549,2.381-14.34
			c0.06-0.383,0.041-0.776,0.064-1.165c0.169-2.91,0.339-5.82,0.523-8.98c0.358,0.053,1.352,0.198,2.537,0.372
			c8.931-18.996,14.901-39.412,25.163-58.425c-4.557-2.989-0.46-6.562,0.684-9.992c1.453-4.359,3.593-8.484,5.155-12.812
			c2.912-8.071,5.138-16.428,8.543-24.274c3.873-8.924,9.996-16.545,16.449-23.806c1.869-2.104,2.073-3.868,1.097-6.728
			c-3.465-10.139-6.395-20.462-9.429-30.744c-0.718-2.432-1.057-4.897-4.041-5.78c-0.652-0.193-1.373-1.287-1.474-2.045
			c-0.8-6.052-5.137-10.23-7.825-15.282c-3.498-6.575-9.892-9.523-15.606-13.395c-6.49-4.396-13.119-8.661-18.07-14.902
			c-1.486-1.873-2.547-4.08-3.956-6.023c-0.421-0.581-1.587-1.278-2.03-1.078c-2.147,0.971-3.021-0.41-3.995-1.791
			c-2.184-3.097-4.799-5.979-6.453-9.337c-1.894-3.841-4.594-7.677-2.857-12.552c0.345-0.969-0.431-2.751-1.251-3.643
			c-2.221-2.409-2.538-5.304-2.832-8.297c-0.146-1.484-0.019-3.147-2.356-3.265c-0.646-0.032-1.18-1.212-1.868-1.726
			c-0.818-0.609-1.74-1.502-2.634-1.521c-4.896-0.104-7.695-3.223-10.168-6.791c-4.54-6.551-4.505-14.021-4.195-21.546
			c0.146-3.565,0.486-7.178,0.088-10.695c-0.533-4.699,1.059-8.876,2.273-13.178c2.873-10.171,8.125-18.988,15.628-26.833
			c-0.829-0.987-1.638-1.905-2.392-2.865c-0.599-0.762-1.686-1.642-1.602-2.357c0.52-4.417-3.213-4.939-5.722-6.579
			c-1.056-0.69-2.177-1.279-3.241-1.957c-1.864-1.189-2.628-2.557-2.128-5.058c0.845-4.221,1.011-8.577,1.474-12.874
			c0.555-5.148,1.159-10.291,1.662-15.443c0.16-1.639,0.328-3.362-0.024-4.93c-0.179-0.792-1.507-1.881-2.323-1.887
			c-6.378-0.045-12.758,0.23-19.138,0.232c-8.99,0.002-17.979-0.14-26.969-0.235c-2.308-0.024-3.592-1.448-3.966-3.506
			c-0.423-2.333,0.322-4.557,2.866-4.979c3.958-0.658,7.99-0.973,12.003-1.169c9.647-0.474,19.305-0.754,28.953-1.201
			c2.901-0.134,5.789-0.56,9.177-0.902c0.399-2.867,0.99-6.023,1.25-9.206c0.502-6.156,0.8-12.328,1.224-18.491
			c0.119-1.722,0.48-3.429,0.559-5.151c0.096-2.101-0.768-3.919-1.454-5.892c-1.251-3.594-0.96-7.739-1.209-11.66
			c-0.063-1.011,0.255-2.046,0.384-2.97c-2.951-1.778-5.438-1.186-8.111,0.272c-2.163,1.179-4.599,1.975-7.007,2.558
			c-3.739,0.906-6.924-1.405-8.646-4.127c-2.239-3.54-2.604-7.515-0.011-10.871c2.613-3.382,5.927-6.199,10.86-5.365
			c0.523,0.088,1.414-0.2,1.674-0.605c2.39-3.744,6.069-4.737,10.21-4.967c0.096-0.23,0.326-0.504,0.293-0.742
			c-0.813-5.867,0.941-11.344,2.448-16.877c0.862-3.171,2.172-4.079,5.597-3.332c0.273-2.458,0.646-4.899,0.801-7.354
			c0.62-9.852,1.176-19.708,1.742-29.563c0.053-0.922-0.018-1.85,0.01-2.774c0.196-6.491,0.446-12.98,0.586-19.472
			c0.06-2.717-0.795-3.153-3.587-2.803c-2.073,0.26-4.207,0.051-6.943-0.577c0.752-0.92,1.354-2.054,2.291-2.713
			c1.622-1.141,3.497-1.914,5.181-2.977c2.083-1.315,4.219-2.5,4.521-5.507c0.104-1.034,1.508-2.157,2.575-2.831
			c2.379-1.5,4.312-4.15,7.718-3.375c0.301,0.068,0.771-0.122,1.012-0.351c6.128-5.814,10.433-7.787,18.368-8.453
			c0.645-0.054,1.658-0.253,1.829-0.664c1.406-3.376,4.426-2.774,7.188-2.863c0.273-2.806-1.302-2.925-3.217-2.633
			c-2.849,0.436-5.698,0.857-8.745,1.314c0-1.392,0-2.327,0-4.085c4.872-1.385,9.983-3.034,15.194-4.277
			c10.151-2.422,20.356-4.618,30.541-6.903c0.666-0.149,1.334-0.35,2.008-0.372c4.459-0.145,7.395-2.305,9.124-6.423
			c1.227-2.921,4.332-4.627,7.231-4.554c2.662,0.067,5.331,0.01,7.991-0.111c1.813-0.083,3.311-0.039,4.715,1.598
			c0.913,1.063,2.81,1.928,4.183,1.821c3.087-0.242,7.26-0.126,8.932-1.997c3.05-3.412,8.029-3.425,10.609-7.232
			c0.422-0.624,2.584-0.604,3.633-0.155c2.187,0.936,3.964,0.864,6.05-0.341c1.165-0.673,2.839-0.483,4.287-0.646
			c0.987-0.111,1.98-0.207,2.975-0.228c1.227-0.025,2.454,0.006,3.68,0.063c1.707,0.081,3.601,0.743,5.087,0.223
			c5.295-1.854,10.589-2.076,16.091-1.353c1.519,0.2,3.195-0.841,4.807-1.294c0.555-0.156,1.131-0.385,1.688-0.36
			c3.994,0.177,7.993,0.638,11.979,0.538c2.251-0.057,4.48-1.005,6.719-1.555c0.094-0.023,0.188-0.126,0.268-0.111
			c3.846,0.792,7.581-2.25,11.537-0.257c0.823,0.415,2.178-0.234,3.289-0.372c1.862-0.229,3.767-0.275,5.585-0.693
			c5.01-1.152,10.588,1.44,15.251-2.403c0.546-0.45,2.644,0.012,3.179,0.703c1.464,1.893,2.963,3.132,5.507,2.993
			c2.715-0.148,5.444-0.033,7.919-0.033c2.967,4.989,5.787,9.73,8.607,14.472c1.034,1.741,2.523,1.683,4.345,1.459
			c3.307-0.406,6.682-0.262,9.987-0.679c3.792-0.479,7.862,2.588,8.261,6.983c0.508,5.611,0.932,11.258,0.888,16.886
			c-0.201,26.17-0.367,52.344-0.96,78.508c-0.426,18.768-1.505,37.521-2.304,56.552c-2.346,0-4.505,0-6.993,0
			c0,2.095-0.202,3.952,0.07,5.736c0.183,1.197,0.793,2.535,1.64,3.384c2.055,2.062,4.382,3.85,6.559,5.795
			c2.304,2.06,3.414,4.617,3.248,7.762c-0.383,7.289-0.781,14.579-0.978,21.874c-0.059,2.193-0.787,3.257-2.942,3.444
			c-4.632,0.402-9.257,0.928-13.896,1.198c-0.808,0.047-2.136-0.73-2.423-1.447c-0.78-1.953-2.003-2.398-3.988-2.489
			c-4.064-0.187-8.114-0.726-12.164-1.174c-2.373-0.262-4.344-0.084-4.027,3.185c-5.688,0.403-11.185,0.867-16.689,1.167
			c-9.77,0.53-19.543,0.955-29.313,1.437c-3.002,0.148-6.008,0.267-8.994,0.564c-0.829,0.083-1.854,0.557-2.357,1.193
			c-3.433,4.345-7.025,8.607-9.955,13.28c-1.042,1.661-0.379,4.39-0.502,6.783c0.978,0.061,1.51,0.254,1.894,0.093
			c3.246-1.364,6.524-0.569,9.831-0.392c1.839,0.099,2.558,0.449,2.603,2.416c0.086,3.77,0.469,7.533,0.746,11.554
			c2.765-0.203,5.338-0.631,7.889-0.521c3.55,0.153,7.111,1.179,10.615,0.966c3.789-0.23,7.498-1.573,11.277-2.213
			c3.196-0.541,6.456-0.691,9.668-1.155c5.412-0.783,10.825-1.586,16.207-2.549c5.562-0.995,11.07-2.291,16.637-3.261
			c3.215-0.56,3.245-0.388,3.316-4.212c3.451,0,6.922-0.048,10.388,0.054c0.507,0.015,1.13,0.654,1.468,1.159
			c6.052,9.05,12.137,18.079,18.008,27.245c0.803,1.254,0.932,3.311,0.611,4.835c-0.634,3.022-1.84,5.92-2.735,8.891
			c-1.061,3.521-0.395,4.557,3.101,5.88c1.166,0.44,2.005,1.781,3.173,2.167c2.257,0.743,3.976,1.991,5.64,3.839
			c1.739,1.929,3.768,3.637,5.846,5.208c1.784,1.349,3.23,2.646,3.25,5.144c0.008,0.875,0.726,1.995,1.456,2.573
			c3.812,3.014,7.66,5.997,11.652,8.764c1.839,1.274,2.849,2.581,2.722,4.917c-0.115,2.128,5.267,8.071,7.028,8.015
			c3.396-0.107,6.791-0.276,10.186-0.447c1.749-0.087,3.521-0.088,5.239-0.375c6.93-1.16,11.121,2.737,14.623,7.845
			c8.361,12.198,9.532,25.748,7.547,39.941c-1.271,9.094-3.662,17.808-8.264,26.441c6.178-0.543,5.659,3.521,5.71,7.375
			c0.04,2.998,0.403,5.992,0.637,9.175c0.831,0.105,1.655,0.212,2.462,0.314c3.602,7.5,3.482,15.016,0.042,22.337
			c2.378,1.984,7.486-0.95,7.788,4.541c0.281,5.103-1.058,6.745-7.135,8.521c1.256,14.599,2.525,29.347,3.819,44.38
			c-2.01,0.854-4.211,1.79-6.232,2.649c0.201,2.419,0.368,4.69,0.593,6.956c0.056,0.562,0.12,1.269,0.47,1.633
			c2.915,3.05,3.732,6.718,3.12,10.85c0.321-0.129,0.643-0.257,0.964-0.387c0.658,1.189,1.808,2.348,1.889,3.575
			c0.317,4.794,2.427,8.807,4.438,13.041c2.26,4.753,3.966,9.928,4.879,15.101c0.573,3.251-0.513,6.892-1.284,10.259
			c-0.986,4.307-2.443,8.503-3.627,12.766c-0.669,2.41-1.109,4.885-1.804,7.286c-1.102,3.816,0.021,7.461,0.687,11.145
			c0.516,2.855,0.958,5.74,1.722,8.535c0.545,1.99,1.339,3.994,2.425,5.742c2.451,3.945,2.871,8.447-0.053,12.19
			c-0.766,0.979-1.17,2.27-2.014,3.156c-1.263,1.325-2.769,2.419-4.166,3.614c-0.876,0.75-1.992,1.356-2.569,2.292
			c-1.256,2.038-2.596,3.462-5.302,3.175c-0.631-0.067-1.732,1.109-2.065,1.938c-1.804,4.477-3.442,9.021-5.124,13.546
			c-2.266,6.104-4.522,12.207-6.764,18.319c-0.16,0.438-0.146,0.938-0.237,1.576c0.869,0.231,1.68,0.448,2.582,0.69
			c0.091,0.193,0.271,0.431,0.317,0.691c1.203,6.646,2.306,13.312,3.619,19.937c0.594,2.991,1.584,5.906,2.45,8.839
			c0.112,0.384,0.507,0.799,0.877,0.976c6.681,3.179,12.091,8.007,16.731,13.597c4.6,5.54,4.917,12.306,1.283,18.867
			c-3.264,5.893-7.905,10.308-13.227,14.244c-1.705,1.261-2.771,3.353-4.356,4.812c-3.087,2.841-7.007,4.381-10.576,6.478
			c-4.764,2.797-9.177,6.189-13.945,8.979c-1.636,0.956-3.901,0.8-5.854,1.258c-5.134,1.205-10.283,2.359-15.367,3.752
			c-2.821,0.772-6.399-0.343-7.177-3.073c-0.719-2.528-1.107-5.15-1.817-7.683c-0.811-2.894-1.064-6.1-4.554-8.635
			c-1.45,5.006-2.988,9.59-4.078,14.277c-1.088,4.684-1.728,9.472-2.59,14.355c-2.434,0-5.158,0.276-7.787-0.104
			c-1.533-0.224-3.362-1.165-4.256-2.375c-1.297-1.757-2.577-2.242-4.58-1.849c-5.04,0.994-10.097,1.381-15.417-0.062
			c1.013-3.403,0.126-7.584,5.399-10.012c-0.843-0.377-1.684-0.755-1.745-0.781c-0.245-2.542-0.554-4.499-0.602-6.462
			c-0.155-6.405-0.278-12.797,3.356-18.564c0.555-0.882-0.066-2.444,0.375-3.469c1.239-2.869,2.41-5.877,4.26-8.342
			c1.508-2.009,2.688-3.736,2.634-6.375c-0.018-0.865-0.729-3.053,1.796-3.135c0.452-0.016,0.844-1.957,1.361-3.262
			c2.936,0.089,6.146,0.225,7.507-3.479c0.045-0.122,0.362-0.246,0.521-0.213c5.23,1.093,5.137-3.824,7.006-6.372
			c1.714-2.338,2.7-5.021,6.511-4.827c1.336,0.068,2.872-1.734,4.142-2.878c2.257-2.035,4.42-4.179,6.524-6.37
			c0.447-0.465,0.75-1.363,0.662-1.999c-0.416-3.05-1.023-6.073-1.497-9.116c-0.325-2.093-0.826-4.213-0.751-6.303
			c0.156-4.348,2.534-6.74,6.722-6.386c2.756,0.231,4.167-0.811,5-3.092c1.029-2.82,3.004-3.49,5.703-2.788
			c1.819,0.473,2.274-0.648,1.666-1.899c-1.148-2.362-0.062-3.571,1.313-5.479c1.51-2.094,2.396-5.21,2.254-7.809
			c-0.338-6.108,2.561-11.29,3.887-16.904c0.395-1.663,0.926-3.295,1.455-5.152c-0.843-0.077-1.301-0.153-1.76-0.157
			c-4.65-0.04-6.096-1.693-6.455-6.464c-0.632-8.404-1.516-16.79-2.294-25.185c-0.019-0.192,0.037-0.483-0.069-0.564
			c-4.08-3.107-1.812-8.059-3.469-11.849c-0.495-1.132-1.492-2.051-1.938-3.191c-0.269-0.687-0.063-2.274,0.178-2.327
			c1.853-0.409,1.938-1.659,1.814-3.111c-0.689-8.217-1.364-16.434-2.076-24.647c-0.427-4.927-0.966-9.844-1.352-14.771
			c-0.618-7.904-1.148-15.813-1.718-23.72c1.151-0.377,2.134-0.698,3.473-1.136c-3.243-1.938-3.491-1.91-3.928-6.035
			c-1.553-14.669-3.318-29.331-4.238-44.044c-0.782-12.511-0.502-25.087-0.712-37.633c-0.037-2.238,0.035-4.507-0.313-6.701
			c-0.427-2.674,0.734-3.539,3.134-3.559c1.26-0.01,2.518-0.12,4.202-0.206c-0.282-3.355-0.306-6.391-2.371-9.526
			c-2.666-4.049-4.684-8.643-6.284-13.242c-1.386-3.979-1.852-8.286-2.631-12.466c-0.612-3.28-1.562-4.244-4.875-4.371
			c-1.92-0.074-3.845-0.014-5.935-0.014c-0.276,1.011-0.552,2.011-0.933,3.398c-3.329-1.245-5.837-0.385-6.757,4.095
			c-3.812-1.442-7.439-2.484-10.747-4.159c-3.404-1.725-3.983-4.142-3.075-8.971c0.175-0.929,0.3-1.865,0.465-2.913
			c-3.539,1.038-4.682,2.723-4.686,6.513c-0.001,1.391,0.499,3.114-1.849,3.171c-2.296,0.054-2.362-1.481-2.344-3.161
			c0.033-2.915,0.009-5.83,0.009-9.501c-7.363-0.041-14.681-0.1-21.999-0.117c-5.438-0.014-10.88-0.069-16.315,0.063
			c-6.295,0.152-11.201-2.613-14.708-7.481c-2.307-3.202-4.771-4.852-8.784-4.793c-5.946,0.086-5.129-0.282-7.44-5.778
			c-3.434,1.376-6.775,3.075-10.317,4.056c-4.442,1.228-9.071,1.764-13.567,2.817c-1.35,0.317-2.546,1.336-3.781,2.084
			c-1.344,0.813-2.604,2.321-3.982,2.422c-6.105,0.448-12.24,0.673-18.364,0.653c-8.447-0.027-16.899-0.644-25.336-0.418
			c-4.341,0.117-8.618,1.858-12.979,2.248c-8.041,0.717-16.13,1.974-23.958-1.842c-2.288-1.116-5.281-0.841-7.963-1.084
			c-4.614-0.417-9.235-0.924-13.86-1.016c-2.02-0.04-4.079,0.775-6.081,1.344c-2.859,0.812-5.684,1.753-8.932,2.767
			c7.882,14.268,15.572,28.31,23.379,42.287c7.805,13.976,13.926,28.933,23.853,41.666c2.582-1.033,4.829-2.156,7.202-2.839
			c5.271-1.517,10.004-0.025,13.936,3.53c5.272,4.77,9.452,10.418,10.285,17.695c0.357,3.116-0.582,6.33,0.57,9.507
			c0.526,1.45-0.157,2.709-2.117,2.489c-2.649-0.299-2.27,1.41-1.837,2.959c0.166,0.592,0.699,1.201,1.23,1.552
			c5.751,3.789,5.271,9.127,3.663,14.705c-1.703,5.918-3.829,11.661-8.723,15.79c-1.729,1.459-3.775,2.546-5.964,3.992
			c0.251,2.633,2.938,1.788,4.959,2.408c-1.236,3.354-2.526,6.654-3.645,10.01c-0.346,1.034-0.576,2.334-0.263,3.322
			c1.611,5.079-0.336,10.174-3.294,14.271c-1.466,2.032-3.603,3.398-4.722,5.572c-0.748,1.454-1.201,3.096,1.411,3.301
			c0.662,0.054,1.31,0.304,2.278,0.538c-0.537,1.479-1.065,2.876-1.551,4.288c-0.504,1.472-0.654,2.782,1.574,2.603
			c2.112-0.172,2.643,1.21,2.852,2.884c0.512,4.079-1.113,6.379-5.177,5.756c-6.518-1.002-9.375,1.902-11.114,7.703
			c-1.991,6.639-4.58,13.102-7.023,19.599c-1.539,4.091-2.043,4.289-6.494,3.74c-3.224-0.397-3.769,0.055-3.885,3.426
			c-0.063,1.85,0.136,3.717-0.062,5.546c-0.15,1.4-0.712,2.764-1.139,4.127c-0.645,2.061-1.891,4.104-1.9,6.158
			c-0.036,7.918-0.459,15.847,1.323,23.719c1.901,8.396-0.98,15.182-7.463,20.951c-5.792,5.156-11.06,10.926-16.312,16.65
			c-1.32,1.439-2.316,3.724-2.394,5.661c-0.315,7.997-5.86,12.28-11.212,16.784c-4.055-0.221-6.319,3.921-9.484,4.503
			c-7.716,1.418-11.807,7.784-18.207,10.596c-1.161,0.417-2.556,0.562-3.438,1.309c-1.841,1.561-3.495,3.369-5.053,5.222
			c-0.628,0.748-1.183,1.9-1.121,2.828c0.373,5.699,0.945,11.387,1.419,17.081c0.169,2.031,0.306,4.069,0.349,6.106
			c0.057,2.637,1.309,4.548,3.276,6.182c2.138,1.771,4.742,3.334,6.099,5.609c1.663,2.789,2.243,6.225,3.11,8.836
			c-2.388,1.882-3.978,3.746-5.993,4.576c-2.911,1.199-6.13,1.656-9.223,2.408c-0.371,0.09-0.851-0.085-1.151,0.087
			c-8.902,5.078-18.698,3.82-28.286,4.021c-4.798,0.103-9.663-0.487-13.973,2.675c-0.921,0.676-2.825,0.165-4.247-0.022
			c-5.023-0.66-10.017-1.792-15.054-2.035c-5.179-0.251-10.396,0.48-15.599,0.503c-4.552,0.02-9.133-0.122-13.646-0.659
			c-1.824-0.218-4.057-1.267-5.101-2.679c-1.273-1.722,0.221-3.546,1.643-5.06c1.685-1.791,2.142-4.197,1.229-6.607
			c-2.75,2.161-5.282,4.285-7.956,6.212c-2.571,1.854-5.233,3.604-7.988,5.162c-0.572,0.323-1.747-0.341-2.615-0.634
			c-1.031-0.349-2.03-0.788-3.043-1.188c-0.267,0.953-0.735,1.9-0.766,2.862c-0.119,3.744-0.658,4.194-4.394,4.426
			c-4.401,0.272-8.187,2.029-11.111,5.438c-1.713,1.994-9.103,4.201-11.436,3.183c-0.786-0.343-1.205-1.526-1.952-2.546
			c-1.342,0.232-3.4,1.188-4.465-1.438C229.438,893.962,229.438,892.014,229.438,890.065z
		"/>
	</symbol>
	<!-- Styles -->
	<g id="off" class="icon">
		<use xlink:href="#icon" class="used"></use>
	</g>
	<g id="on" class="icon">
		<use xlink:href="#icon" class="used"></use>
	</g>
</svg>