<svg width="1000" height="1000" viewBox="0 0 1000 1000" xmlns="http://www.w3.org/2000/svg" xmlns:svg="http://www.w3.org/2000/svg" xmlns:xlink="http://www.w3.org/1999/xlink">
	<title>Star Wars X-Wing Die Faces</title>
	<defs>
		<filter id='inset-shadow'>
			<!-- Shadow Offset -->
			<feOffset
				dx='5'
				dy='5'
			/>
			<!-- Shadow Blur -->
			<feGaussianBlur
				stdDeviation='10'
				result='offset-blur'
			/>
			<!-- Invert the drop shadow to create an inner shadow -->
			<feComposite
				operator='out'
				in='SourceGraphic'
				in2='offset-blur'
				result='inverse'
			/>
			<!-- Color & Opacity -->
			<feFlood
				flood-color='black'
				flood-opacity='0.75'
				result='color'
			/>
			<!-- Clip color inside shadow -->
			<feComposite
				operator='in'
				in='color'
				in2='inverse'
				result='shadow'
			/>
			<!-- Put shadow over original object -->
			<feComposite
				operator='over'
				in='shadow'
				in2='SourceGraphic'
			/>
		</filter>
		<filter id='inset-highlight'>
			<!-- Shadow Offset -->
			<feOffset
				dx='-5'
				dy='-5'
			/>
			<!-- Shadow Blur -->
			<feGaussianBlur
				stdDeviation='10'
				result='offset-blur'
			/>
			<!-- Invert the drop shadow
				 to create an inner shadow -->
			<feComposite
				operator='out'
				in='SourceGraphic'
				in2='offset-blur'
				result='inverse'
			/>
			<!-- Color & Opacity -->
			<feFlood
				flood-color='white'
				flood-opacity='0.75'
				result='color'
			/>
			<!-- Clip color inside shadow -->
			<feComposite
				operator='in'
				in='color'
				in2='inverse'
				result='shadow'
			/>
			<!-- Put shadow over original object -->
			<feComposite
				operator='over'
				in='shadow'
				in2='SourceGraphic'
			/>
		</filter>
		<style><![CDATA[
		.sprite { display: none; }
		.sprite:target { display: inline; }
		.icon { fill: #FFFFFF; filter: url(#inset-shadow); }
		.white-die .icon { fill: #000000; filter: url(#inset-highlight); }
		.white-die .border { stroke: #000000; stroke-width: 1px; }
		.black-die .border { stroke: #FFFFFF; stroke-width 1px; }
	]]></style>
	</defs>
	<!-- Effect Icons -->
	<symbol id="hit" width="500" height="500" viewBox="0 0 1000 1000"><!-- Illustrator -->
		<title>hit</title>
		<polygon points="
			487.959,98.5 545.493,366.712 749.603,192.74 618.781,436.576 827.685,448.904 637.274,536.575 840.014,699.589
			585.219,622.877 604.397,820.137 487.959,655.754 318.096,898.5 393.438,622.877 131.794,713.288 337.274,533.836 167.411,454.384
			357.822,433.836 222.206,190 435.904,366.712
		"/>
	</symbol>
	<symbol id="critical" width="500" height="500" viewBox="0 0 1000 1000"><!-- Illustrator -->
		<title>critical</title>
		<path d="
			M840.014,699.589L637.274,536.575l190.41-87.671l-208.903-12.329L749.603,192.74L545.493,366.712L487.959,98.5
			l-52.055,268.212L222.206,190l135.616,243.836l-190.411,20.548l169.863,79.452L131.794,713.288l261.644-90.411L318.096,898.5
			l169.863-242.746l116.438,164.383l-19.179-197.26L840.014,699.589z M487.995,584.977l-90.17,128.858l38.995-146.311L298.93,615.518
			l109.077-95.26l-90.169-42.176l101.076-11.908l-71.99-128.436l113.439,92.805l27.633-141.377l28.541,140.377l110.349-90.352
			l-69.445,125.438l110.894,10.544l-101.076,44.538l107.62,88.534l-134.253-40.721l9.181,104.712L487.995,584.977
			z
		"/>
	</symbol>
	<symbol id="focus" width="500" height="500" viewBox="0 0 1000 1000"><!-- Illustrator -->
		<title>focus</title>
		<path d="
			M498.25,302.739c-300.418,0-399.875,215.698-399.875,215.698l0.125,0.303c0,0,99.332,178.521,399.75,178.521
			S898,518.74,898,518.74v-0.303C898,518.438,798.668,302.739,498.25,302.739z M492.33,458.424c0-37.828,30.665-68.492,68.492-68.492
			s68.492,30.664,68.492,68.492c0,37.827-30.665,68.492-68.492,68.492S492.33,496.251,492.33,458.424z M181.187,514.518
			c0,0,13.262-54.416,52.825-75.66c26.136-14.034,57.829-27.335,96.55-37.605c-12.45,25.071-19.452,53.327-19.452,83.22
			c0,73.242,42.025,136.661,103.273,167.482c-80.74-9.96-140.234-33.719-181.888-59.799
			C180.392,559.534,181.187,514.518,181.187,514.518z M851,514.757c0,0-68.465,111.127-267.717,136.867
			c60.888-30.945,102.607-94.174,102.607-167.152c0-29.323-6.741-57.068-18.75-81.78C802.207,440.323,851,514.518,851,514.518V514.757
			z
		"/>
	</symbol>
	<symbol id="evade" width="500" height="500" viewBox="0 0 1000 1000"><!-- Illustrator -->
		<title>evade</title>
		<path d="
			M642.381,257.5l81.198-66.394L446.093,98.5l6,314.595l93.446-76.41c8.479,11.334,23.821,34.638,32.104,64.306
			c14.321,51.299,1.563,98.675-39.004,144.836c-71.579,81.449-71.186,152.741-58.251,198.205
			c10.487,36.86,33.479,71.363,66.492,99.777c22.616,19.466,49.906,35.688,71.622,42.624l21.038,7.289l40.92-118.113l-21.916-7.593
			l-1.948-0.64c-9.852-3.614-48.078-26.975-56.3-58.729c-5.788-22.358,5.058-49.377,32.237-80.305
			c38.51-43.82,62.636-91.629,71.707-142.095c7.389-41.102,4.689-83.199-8.022-125.124C681.469,312.481,656.749,275.955,642.381,257.5
			z
		"/>
		<circle cx="341.014" cy="513.918" r="86.301"/>
	</symbol>
	<!-- Dice Backgrounds -->
	<symbol id="red-bak" width="1000" height="1000" viewBox="0 0 1000 1000">
		<title>red background</title>
		<polygon points="0,933 500,67 1000,933" fill="#DD0000" />
	</symbol>
	<symbol id="green-bak" width="1000" height="1000" viewBox="0 0 1000 1000">
		<title>green background</title>
		<polygon points="0,933 500,67 1000,933" fill="#009900" />
	</symbol>
	<!-- Red Dice -->
	<g id="red" class="sprite">
		<title>red</title>
		<use xlink:href="#red-bak" />
		<use xlink:href="#critical" x="250" y="394" width="500" height="500" class="icon" />
	</g>
	<g id="red-0" class="sprite">
		<title>red 0</title>
		<use xlink:href="#red-bak" />
		<use xlink:href="#focus" x="250" y="394" width="500" height="500" class="icon" />
	</g>
	<g id="red-1" class="sprite">
		<title>red 1</title>
		<use xlink:href="#red-bak" />
		<use xlink:href="#focus" x="250" y="394" width="500" height="500" class="icon" />
	</g>
	<g id="red-2" class="sprite">
		<title>red 2</title>
		<use xlink:href="#red-bak" />
		<use xlink:href="#hit" x="250" y="394" width="500" height="500" class="icon" />
	</g>
	<g id="red-3" class="sprite">
		<title>red 3</title>
		<use xlink:href="#red-bak" />
		<use xlink:href="#hit" x="250" y="394" width="500" height="500" class="icon" />
	</g>
	<g id="red-4" class="sprite">
		<title>red 4</title>
		<use xlink:href="#red-bak" />
		<use xlink:href="#hit" x="250" y="394" width="500" height="500" class="icon" />
	</g>
	<g id="red-5" class="sprite">
		<title>red 5</title>
		<use xlink:href="#red-bak" />
		<use xlink:href="#critical" x="250" y="394" width="500" height="500" class="icon" />
	</g>
	<g id="red-6" class="sprite">
		<title>red 6</title>
		<use xlink:href="#red-bak" />
	</g>
	<g id="red-7" class="sprite">
		<title>red 7</title>
		<use xlink:href="#red-bak" />
	</g>
	<!-- Green Dice -->
	<g id="green" class="sprite">
		<title>green</title>
		<use xlink:href="#green-bak" />
		<use xlink:href="#evade" x="250" y="394" width="500" height="500" class="icon" />
	</g>
	<g id="green-0" class="sprite">
		<title>green 0</title>
		<use xlink:href="#green-bak" />
		<use xlink:href="#focus" x="250" y="394" width="500" height="500" class="icon" />
	</g>
	<g id="green-1" class="sprite">
		<title>green 1</title>
		<use xlink:href="#green-bak" />
		<use xlink:href="#focus" x="250" y="394" width="500" height="500" class="icon" />
	</g>
	<g id="green-2" class="sprite">
		<title>green 2</title>
		<use xlink:href="#green-bak" />
		<use xlink:href="#evade" x="250" y="394" width="500" height="500" class="icon" />
	</g>
	<g id="green-3" class="sprite">
		<title>green 3</title>
		<use xlink:href="#green-bak" />
		<use xlink:href="#evade" x="250" y="394" width="500" height="500" class="icon" />
	</g>
	<g id="green-4" class="sprite">
		<title>green 4</title>
		<use xlink:href="#green-bak" />
		<use xlink:href="#evade" x="250" y="394" width="500" height="500" class="icon" />
	</g>
	<g id="green-5" class="sprite">
		<title>green 5</title>
		<use xlink:href="#green-bak" />
	</g>
	<g id="green-6" class="sprite">
		<title>green 6</title>
		<use xlink:href="#green-bak" />
	</g>
	<g id="green-7" class="sprite">
		<title>green 7</title>
		<use xlink:href="#green-bak" />
	</g>
</svg>