<svg width="1000" height="1000" viewBox="0 0 1000 1000" xmlns="http://www.w3.org/2000/svg" xmlns:svg="http://www.w3.org/2000/svg" xmlns:xlink="http://www.w3.org/1999/xlink">
	<defs>
		<style><![CDATA[
		.icon { display: none; fill: #EEE; }
		.icon:target { display: inline; }
	]]></style>
	</defs>
	<!-- Icons -->
	<g id="enter" class="icon">
		<title>enter fullscreen</title>
		<polygon points="856.977,768.773 713.952,625.75 625.75,713.952 768.773,856.977 625.75,1000 1000,1000 1000,625.75"/>
		<polygon points="374.25,0 0,0 0,374.25 143.023,231.227 284.709,372.788 372.91,284.586 231.227,143.023"/>
		<polygon points="374.25,713.952 286.048,625.75 143.023,768.773 0,625.75 0,1000 374.25,1000 231.227,856.977"/>
		<polygon points="1000,0 625.75,0 768.773,143.023 627.09,284.586 715.292,372.788 856.977,231.227 1000,374.25"/>
	</g>
	<g id="exit" class="icon">
		<title>exit fullscreen</title>
		<polygon points="768.773,856.977 911.798,1000 1000,911.798 856.977,768.773 1000,625.75 625.75,625.75 625.75,1000"/>
		<polygon points="0,374.25 374.25,374.25 374.25,0 231.227,143.023 89.541,1.462 1.34,89.664 143.023,231.227"/>
		<polygon points="0,911.798 88.202,1000 231.227,856.977 374.25,1000 374.25,625.75 0,625.75 143.023,768.773"/>
		<polygon points="625.75,374.25 1000,374.25 856.977,231.227 998.66,89.664 910.458,1.462 768.773,143.023 625.75,0"/>
	</g>
</svg>