<svg width="1000" height="1000" viewBox="0 0 1000 1000" xmlns="http://www.w3.org/2000/svg" xmlns:svg="http://www.w3.org/2000/svg" xmlns:xlink="http://www.w3.org/1999/xlink">
	<title>Star Wars Imperial Assault Die Faces</title>
	<defs>
		<style><![CDATA[
		.icon { display: none; }
		.icon:target { display: inline; }
		.used { fill: #EEE; }
	]]></style>
	</defs>
	<!-- Effect Icons -->
	<symbol id="hitIcon" viewBox="100 100 900 900"><!-- Illustrator -->
		<title>hit</title>
		<path d="
			M926.745,71.543c-0.353,0.295-0.704,0.587-1.057,0.882c0.294-0.353,0.586-0.704,0.882-1.057
			c-0.298,0.24-0.592,0.482-0.889,0.723c0.586-0.587,1.165-1.17,1.753-1.759c-0.609,0.609-1.214,1.209-1.822,1.815
			c-8.087,6.558-15.979,13.192-23.673,19.899c-257.262,210.058-384.681,230.45-433.808,33.937
			c-14.792,174.54-57.788,220.078-231.435,110.473c-1.528-1.06-3.067-2.105-4.63-3.124c0.067,0.104,0.132,0.208,0.198,0.312
			c-0.104-0.067-0.207-0.131-0.312-0.198c1.018,1.561,2.062,3.099,3.121,4.625c109.609,173.65,64.071,216.647-110.47,231.438
			c196.522,49.13,176.12,176.558-33.965,433.843c-6.962,7.987-13.848,16.186-20.649,24.597c0.351-0.294,0.7-0.584,1.051-0.877
			c-0.293,0.351-0.584,0.7-0.877,1.051c0.296-0.239,0.59-0.481,0.886-0.721c-0.584,0.586-1.163,1.169-1.75,1.756
			c0.608-0.608,1.213-1.208,1.82-1.813c8.077-6.55,15.96-13.176,23.645-19.875C352.047,697.39,479.474,676.988,528.603,873.51
			c14.792-174.549,57.792-220.083,231.461-110.457c1.519,1.054,3.05,2.094,4.604,3.106c-0.066-0.104-0.13-0.205-0.196-0.31
			c0.104,0.066,0.206,0.131,0.31,0.197c-1.014-1.556-2.055-3.088-3.109-4.608C652.048,587.773,697.583,544.773,872.13,529.981
			c-196.512-49.127-176.121-176.544,33.933-433.803C913.036,88.179,919.933,79.968,926.745,71.543z
		" />
	</symbol>
	<symbol id="criticalIcon" viewBox="100 100 900 900"><!-- Illustrator -->
		<title>critical</title>
		<path d="
			M300.973,797.104c2.434-10.69,4.688-20.63,6.958-30.564
			c5.655-24.749,11.348-49.488,16.897-74.262c0.292-1.304-0.16-3.277-1.017-4.272c-7.901-9.184-16.077-18.124-23.902-27.373
			c-1.776-2.1-3.197-2.54-5.696-1.938c-56.761,13.689-113.538,27.305-170.312,40.934c-0.511,0.122-1.025,0.229-1.841-0.119
			c0.917-0.81,1.819-1.636,2.753-2.425c44.549-37.673,89.087-75.359,133.692-112.963c2.141-1.806,2.579-3.345,1.99-6.119
			c-1.984-9.349-3.668-18.77-5.188-28.209c-0.384-2.381-1.322-3.231-3.464-3.874c-33.425-10.014-66.823-20.121-100.226-30.212
			c-1.325-0.401-2.634-0.855-4.775-1.555c8.203-2.899,15.6-5.526,23.003-8.129c27.305-9.601,54.536-19.433,81.981-28.602
			c6.016-2.01,8.059-5.738,9.068-11.133c0.22-1.176,0.371-2.367,0.653-4.187c18.09,12.613,35.843,24.991,54.408,37.936
			c-22.65,4.396-44.355,8.608-66.06,12.821c-0.018,0.231-0.036,0.464-0.055,0.695c41.098,13.923,82.196,27.847,123.965,41.998
			c-31.009,22.1-61.534,43.854-92.06,65.608c0.053,0.22,0.104,0.439,0.157,0.658c40.401-3.559,80.804-7.119,121.875-10.737
			c-12.861,33.056-25.462,65.438-38.062,97.819c0.14,0.177,0.279,0.354,0.419,0.531c25.257-18.53,50.515-37.062,76.235-55.932
			c9.61,47.764,19.122,95.035,28.633,142.309c0.224,0.058,0.446,0.115,0.67,0.174c17.651-50.226,35.303-100.45,53.133-151.183
			c37.378,26.511,74.425,52.788,111.472,79.065c-0.074,0.199-0.148,0.397-0.224,0.596c-0.743-0.144-1.502-0.23-2.227-0.442
			c-8.635-2.516-17.238-5.146-25.918-7.49c-1.544-0.418-3.711-0.191-5.057,0.634c-21.724,13.331-44.672,23.754-69.228,30.379
			c-2.166,0.584-2.864,1.944-3.567,3.738c-18.622,47.509-37.271,95.005-55.912,142.505c-5.693,14.506-11.374,29.018-17.069,43.522
			c-0.434,1.105-0.933,2.186-2.049,3.3c-0.782-4.914-1.591-9.822-2.344-14.74c-6.894-45.005-13.782-90.009-20.663-135.016
			c-2.061-13.48-4.19-26.951-6.061-40.459c-0.452-3.263-1.688-4.854-4.857-5.799c-7.367-2.196-14.626-4.782-21.868-7.385
			c-2.162-0.776-3.771-0.477-5.688,0.756c-29.563,18.99-59.177,37.901-88.781,56.827
			C303.722,795.461,302.647,796.086,300.973,797.104z

			M503.392,173.001c-1.06,44.884-2.12,89.768-3.198,135.458
			c-26.291-18.66-52.055-36.946-78.261-55.546c9.911-6.766,18.443-14.883,29.299-19.41c2.229-0.93,3.055-2.206,3.273-4.586
			c4.698-51.283,9.471-102.559,14.229-153.835c0.462-4.977,0.916-9.955,1.443-15.689c1.259,1.548,2.023,2.428,2.723,3.358
			c35.157,46.813,70.312,93.628,105.442,140.463c1.287,1.715,2.488,3.044,4.91,3.157c24.932,1.159,48.325,8.437,70.874,18.84
			c2.655,1.226,4.689,1.111,7.264-0.057c39.33-17.851,78.703-35.602,118.068-53.372c0.879-0.397,1.78-0.741,3.329-1.383
			c-0.427,1.568-0.688,2.645-1.015,3.702c-12.479,40.51-24.951,81.021-37.483,121.515c-0.632,2.041-0.626,3.579,0.68,5.449
			c11.892,17.042,21.456,35.38,28.993,54.802c1.031,2.656,2.516,4.192,5.188,5.22c32.289,12.412,64.531,24.949,96.785,37.456
			c0.904,0.351,1.802,0.722,3.3,1.322c-1.461,0.881-2.503,1.55-3.58,2.155c-28.816,16.157-57.623,32.33-86.479,48.411
			c-2.127,1.185-2.995,2.559-3.337,5.02c-2.086,15.018-4.396,30.004-6.771,45.942c-23.961-16.596-47.225-32.71-71.091-49.241
			c29.956-15.588,59.425-30.924,88.895-46.26c-0.031-0.24-0.062-0.48-0.093-0.721c-46.178-7.166-92.354-14.333-139.132-21.592
			c20.237-45.845,40.309-91.313,60.38-136.782c-0.188-0.205-0.375-0.408-0.562-0.612c-44.777,30.091-89.555,60.181-134.789,90.579
			c-26.243-54.765-52.405-109.359-78.566-163.953C503.87,172.875,503.631,172.938,503.392,173.001z

			M85.79,199.29c1.048,0.47,2.116,0.896,3.139,1.416
			c153.401,77.934,306.8,155.873,460.187,233.835c1.632,0.829,3.204,1.852,4.638,3c119.17,95.496,238.323,191.013,357.476,286.53
			c1.165,0.934,2.308,1.895,3.229,3.231c-0.947-0.434-1.908-0.838-2.839-1.304c-136.742-68.393-273.483-136.788-410.213-205.207
			c-1.541-0.771-3.019-1.732-4.387-2.79C360.645,412.577,224.282,307.135,87.922,201.689c-0.814-0.63-1.588-1.314-2.38-1.973
			C85.624,199.575,85.707,199.432,85.79,199.29z
		"/>
	</symbol>
	<symbol id="accuracyIcon" viewBox="100 100 900 900"><!-- Illustrator -->
		<title>accuracy</title>
		<path d="
			M811.786,620.48c18.54-77.729,6.911-158.996-30.571-227.701l-0.165,0.096c-40.056-73.352-107.994-129.278-189.565-153.571
			l51.297-125.29H357.242l51.296,125.291c-43.045,12.819-82.289,34.447-115.647,62.801c-0.044,0.038-0.088,0.075-0.132,0.112
			c-1.779,1.514-3.541,3.048-5.287,4.601c-0.099,0.088-0.197,0.176-0.297,0.264c-1.703,1.518-3.389,3.054-5.058,4.607
			c-0.135,0.125-0.271,0.25-0.404,0.376c-1.641,1.532-3.265,3.08-4.874,4.646c-0.153,0.149-0.306,0.298-0.458,0.448
			c-1.592,1.556-3.169,3.128-4.729,4.717c-0.155,0.158-0.311,0.317-0.465,0.476c-1.557,1.593-3.099,3.2-4.622,4.825
			c-0.144,0.152-0.284,0.306-0.428,0.459c-1.534,1.643-3.053,3.298-4.552,4.973c-0.113,0.126-0.224,0.253-0.336,0.379
			c-1.528,1.711-3.04,3.436-4.531,5.18c-0.059,0.069-0.117,0.14-0.177,0.209c-11.099,13.001-21.188,26.891-30.115,41.567l-0.241-0.139
			c-43.096,70.959-57.672,157.905-37.964,240.526L54.065,638.557l142.767,247.287l82.777-107.066
			c58.045,54.922,134.402,85.484,212.402,87.377v-0.24c0.333,0.008,0.667,0.006,1,0.012v0.373c83,1.842,165.588-29.004,227.285-87.381
			l82.865,107.068l142.772-247.283L811.786,620.48z M667.562,710.77c-42.632,43.352-101.947,70.244-167.551,70.244
			c-65.668,0-125.034-26.945-167.675-70.371l95.062-122.791l-153.904,20.895c-5.521-19.973-8.482-41.004-8.482-62.732
			c0-45.602,13.003-88.162,35.484-124.199c0.869-1.394,1.751-2.777,2.648-4.15c0.116-0.179,0.233-0.354,0.351-0.532
			c0.909-1.383,1.831-2.757,2.768-4.12c0.113-0.164,0.227-0.327,0.34-0.491c0.947-1.37,1.907-2.73,2.883-4.079
			c0.11-0.152,0.222-0.303,0.331-0.454c0.985-1.355,1.983-2.701,2.996-4.034c0.106-0.14,0.214-0.279,0.321-0.419
			c1.021-1.338,2.057-2.667,3.105-3.982c0.105-0.132,0.212-0.262,0.317-0.394c1.057-1.318,2.125-2.626,3.21-3.921
			c0.104-0.125,0.21-0.249,0.315-0.373c1.09-1.296,2.191-2.582,3.309-3.854c0.105-0.12,0.212-0.238,0.317-0.357
			c1.122-1.272,2.256-2.534,3.405-3.782c0.104-0.114,0.211-0.227,0.316-0.34c1.153-1.248,2.318-2.484,3.498-3.707
			c0.107-0.111,0.218-0.222,0.326-0.333c1.182-1.22,2.375-2.429,3.584-3.623c0.109-0.109,0.223-0.216,0.333-0.325
			c1.21-1.192,2.432-2.372,3.667-3.537c0.113-0.107,0.228-0.211,0.341-0.318c1.239-1.164,2.489-2.317,3.753-3.454
			c0.111-0.1,0.224-0.198,0.335-0.298c1.269-1.137,2.548-2.262,3.842-3.372c0.117-0.1,0.235-0.198,0.353-0.298
			c1.294-1.105,2.599-2.199,3.917-3.277c0.116-0.095,0.232-0.187,0.35-0.281c1.323-1.078,2.656-2.144,4.003-3.193
			c0.116-0.09,0.234-0.178,0.351-0.268c1.351-1.049,2.712-2.086,4.087-3.105c0.112-0.083,0.228-0.165,0.34-0.248
			c1.382-1.021,2.772-2.03,4.179-3.022c0.108-0.076,0.218-0.15,0.327-0.227c1.414-0.994,2.836-1.975,4.271-2.938
			c0.102-0.067,0.204-0.133,0.306-0.201c1.449-0.968,2.907-1.923,4.378-2.86c0.077-0.05,0.156-0.097,0.234-0.146
			c1.496-0.951,3.003-1.887,4.522-2.805c0.05-0.03,0.101-0.059,0.151-0.089c1.549-0.934,3.108-1.852,4.681-2.75
			c0.012-0.007,0.025-0.014,0.037-0.021c17.794-10.168,37.045-18.078,57.364-23.337l59.053,144.226l59.049-144.226
			c1.949,0.504,3.887,1.035,5.816,1.588c0.353,0.101,0.701,0.211,1.054,0.312c1.571,0.458,3.14,0.927,4.697,1.417
			c0.494,0.155,0.983,0.321,1.478,0.479c1.411,0.455,2.819,0.915,4.22,1.396c0.558,0.191,1.111,0.392,1.668,0.588
			c1.327,0.467,2.65,0.939,3.968,1.429c0.589,0.219,1.174,0.446,1.761,0.669c1.278,0.487,2.553,0.981,3.819,1.491
			c0.597,0.239,1.188,0.484,1.784,0.729c1.252,0.515,2.5,1.039,3.741,1.575c0.59,0.254,1.177,0.512,1.764,0.771
			c1.24,0.548,2.478,1.106,3.708,1.676c0.569,0.263,1.139,0.528,1.706,0.796c1.244,0.588,2.481,1.188,3.715,1.796
			c0.539,0.267,1.078,0.532,1.615,0.803c1.264,0.637,2.521,1.287,3.771,1.946c0.491,0.258,0.983,0.515,1.473,0.777
			c1.307,0.7,2.604,1.415,3.895,2.138c0.422,0.237,0.847,0.47,1.268,0.709c1.39,0.79,2.768,1.597,4.14,2.414
			c0.311,0.186,0.625,0.367,0.936,0.553c1.552,0.935,3.092,1.888,4.62,2.857c0.123,0.078,0.249,0.154,0.372,0.232
			c8.454,5.384,16.542,11.293,24.216,17.682c0.077,0.065,0.154,0.131,0.231,0.196c1.435,1.197,2.854,2.41,4.259,3.64
			c0.16,0.141,0.317,0.284,0.479,0.425c1.319,1.162,2.628,2.337,3.921,3.529c0.201,0.185,0.4,0.373,0.602,0.559
			c1.248,1.158,2.484,2.327,3.708,3.511c0.217,0.21,0.434,0.423,0.649,0.635c1.203,1.175,2.396,2.361,3.572,3.561
			c0.215,0.218,0.428,0.438,0.643,0.656c1.179,1.21,2.345,2.432,3.497,3.667c0.195,0.21,0.393,0.421,0.588,0.632
			c1.172,1.264,2.329,2.542,3.473,3.832c0.164,0.184,0.328,0.368,0.491,0.553c1.179,1.338,2.343,2.69,3.491,4.055
			c0.119,0.142,0.239,0.282,0.357,0.424c1.211,1.445,2.404,2.905,3.581,4.38c0.049,0.061,0.099,0.152,0.146,0.213
			c8.734,10.974,16.511,22.223,23.197,35.223h0.002c17.771,33,27.861,70.857,27.861,111.031c0,21.781-2.977,42.85-8.521,62.865
			l-153.927-20.914L667.562,710.77z
		"/>
	</symbol>
	<!-- Effects -->
	<g id="hit" class="icon">
		<title>hit</title>
		<use xlink:href="#hitIcon" class="used"></use>
	</g>
	<g id="critical" class="icon">
		<title>critical</title>
		<use xlink:href="#criticalIcon" class="used"></use>
	</g>
	<g id="accuracy" class="icon">
		<title>accuracy</title>
		<use xlink:href="#accuracyIcon" class="used"></use>
	</g>
</svg>