<svg width="1000" height="1000" viewBox="0 0 1000 1000" xmlns="http://www.w3.org/2000/svg" xmlns:svg="http://www.w3.org/2000/svg" xmlns:xlink="http://www.w3.org/1999/xlink">
	<defs>
		<filter id='inset-shadow'>
			<!-- Shadow Offset -->
			<feOffset
				dx='15'
				dy='15'
			/>
			<!-- Shadow Blur -->
			<feGaussianBlur
				stdDeviation='10'
				result='offset-blur'
			/>
			<!-- Invert the drop shadow to create an inner shadow -->
			<feComposite
				operator='out'
				in='SourceGraphic'
				in2='offset-blur'
				result='inverse'
			/>
			<!-- Color & Opacity -->
			<feFlood
				flood-color='black'
				flood-opacity='0.75'
				result='color'
			/>
			<!-- Clip color inside shadow -->
			<feComposite
				operator='in'
				in='color'
				in2='inverse'
				result='shadow'
			/>
			<!-- Put shadow over original object -->
			<feComposite
				operator='over'
				in='shadow'
				in2='SourceGraphic'
			/>
		</filter>
		<filter id='inset-highlight'>
			<!-- Shadow Offset -->
			<feOffset
				dx='-10'
				dy='-10'
			/>
			<!-- Shadow Blur -->
			<feGaussianBlur
				stdDeviation='10'
				result='offset-blur'
			/>
			<!-- Invert the drop shadow
				 to create an inner shadow -->
			<feComposite
				operator='out'
				in='SourceGraphic'
				in2='offset-blur'
				result='inverse'
			/>
			<!-- Color & Opacity -->
			<feFlood
				flood-color='white'
				flood-opacity='0.5'
				result='color'
			/>
			<!-- Clip color inside shadow -->
			<feComposite
				operator='in'
				in='color'
				in2='inverse'
				result='shadow'
			/>
			<!-- Put shadow over original object -->
			<feComposite
				operator='over'
				in='shadow'
				in2='SourceGraphic'
			/>
		</filter>
		<style><![CDATA[
		.icon { display: none; }
		.icon:target { display: inline; }
		.used { fill: #000; filter: url(#inset-highlight); }
		#off .used { fill: #EEE; filter: url(#inset-shadow); }
	]]></style>
	</defs>
	<!-- Icon -->
	<symbol id="icon">
		<path d="
			M115.295,729.208c0.708,0,1.416,0,2.124,0c1.56-0.806,3.041-1.883,4.695-2.366c5.074-1.482,10.236-2.662,15.325-4.096
			c15.168-4.272,30.309-8.643,45.478-12.912c15.559-4.379,31.141-8.675,46.709-13.022c20.571-5.744,41.14-11.497,61.707-17.257
			c7.611-2.132,15.209-4.313,22.82-6.444c16.37-4.582,32.749-9.138,49.118-13.724c10.798-3.024,21.583-6.093,32.378-9.126
			c17.117-4.808,34.321-9.325,51.329-14.488c14.123-4.287,28.779-6.753,42.385-12.881c5.663-2.551,11.859-3.947,17.862-5.7
			c4.256-1.243,8.62-2.11,12.888-3.313c5.805-1.636,11.537-3.524,17.348-5.136c7.041-1.953,14.146-3.676,21.191-5.616
			c2.32-0.639,4.521-1.697,6.811-2.467c1.647-0.554,3.322-1.162,5.031-1.368c3.295-0.398,6.699-0.168,9.92-0.85
			c5.836-1.236,11.596-2.864,17.344-4.481c12.023-3.385,24.005-6.925,36.031-10.301c17.022-4.777,34.072-9.454,51.105-14.193
			c6.887-1.916,13.76-3.876,20.636-5.83c2.698-0.767,5.43-1.45,8.064-2.397c2.455-0.883,4.731-2.726,7.21-2.992
			c7.112-0.763,13.814-2.995,20.624-4.881c10.669-2.955,21.359-5.839,31.992-8.919c5.155-1.493,10.263-2.928,15.714-2.513
			c1.324,0.101,2.69-0.024,4.006-0.236c6.271-1.013,12.523-2.143,18.801-3.114c1.683-0.26,2.709-0.784,2.964-2.635
			c0.304-2.205,1.104-3.698,3.821-4.347c7.273-1.736,14.406-4.051,21.609-6.084c9.843-2.778,19.697-5.519,29.551-8.255
			c4.115-1.143,8.275-2.127,12.355-3.379c4.266-1.309,8.45-2.88,12.689-4.279c1.518-0.5,3.091-0.832,4.639-1.241
			c-2.266-0.348-4.41-0.677-6.521-0.528c-4.037,0.286-8.073,0.734-12.074,1.35c-1.331,0.204-2.535,1.169-3.837,1.685
			c-0.376,0.149-0.898-0.02-1.343-0.104c-0.463-0.087-0.906-0.333-1.367-0.357c-1.035-0.056-2.074-0.018-3.188-0.018
			c-0.026-0.592-0.054-0.933-0.054-1.274c-0.003-2.727-0.082-5.457,0.058-8.176c0.036-0.704,0.612-1.727,1.208-1.988
			c1.857-0.813,3.812-1.458,5.786-1.938c4.825-1.173,9.688-2.191,14.524-3.324c2.568-0.602,5.109-1.313,7.663-1.975
			c0-0.425,0-0.85,0-1.274c-0.612-0.101-1.251-0.122-1.832-0.313c-9.467-3.117-18.942-6.208-28.384-9.399
			c-14.443-4.881-28.889-9.76-43.283-14.785c-8.67-3.027-17.461-5.626-25.99-9.178c-9.79-4.077-20.145-6.811-30.285-10.03
			c-8.557-2.715-17.189-5.193-25.727-7.962c-5.725-1.857-11.559-3.509-16.617-7.01c-2.011-1.392-2.117-1.845-0.357-3.727
			c0.453-0.486,1.125-1.067,1.13-1.609c0.009-1.043-0.388-2.089-0.678-3.414c-0.381-0.096-1.116-0.281-1.679-0.422
			c-0.394-0.684-0.629-1.691-1.096-1.814c-5.243-1.378-10.522-2.621-15.899-3.926c0.134-0.393,0.323-0.944,0.511-1.496
			c-0.264,0.261-0.527,0.521-0.792,0.781c-0.416-0.828-0.676-1.806-1.288-2.447c-0.792-0.83-1.776-1.699-2.836-2.006
			c-2.573-0.747-5.266-1.075-7.854-1.774c-1.677-0.453-3.365-1.08-4.854-1.959c-1.736-1.025-1.55-1.646-0.087-3.036
			c0.588-0.558,1.024-2.356,0.896-2.425c-2.682-1.457-0.189-1.814,0.492-2.503c0.596-0.601,1.312-1.099,1.812-1.766
			c0.221-0.295,0.037-0.894,0.037-1.407c-0.65-0.054-1.18-0.098-2.033-0.168c0.446-0.879,0.791-1.558,1.035-2.041
			c-0.773-0.458-1.493-0.885-2.354-1.395c-0.391,0.073-1.07,0.2-1.75,0.327c-0.102-0.205-0.203-0.411-0.305-0.616
			c1.206-0.991,2.411-1.98,4.148-3.408c-9.308-3.374-18.921-4.598-27.983-8.538c0.717-0.53,1.059-0.764,1.378-1.025
			c0.288-0.234,0.552-0.499,1.09-0.991c-0.907-0.074-1.446-0.15-1.987-0.156c-2.137-0.021-2.751-1.16-2.109-3.16
			c0.146-0.461,0.424-0.945,0.375-1.39c-0.066-0.6-0.289-1.237-0.621-1.742c-0.699-1.065-1.17-2.08,0.065-3.037
			c0.649-0.503,1.396-0.883,2.068-1.301c-1.103-0.711-2.017-1.549-3.094-1.945c-2.501-0.921-2.564-0.958-0.372-3.092
			c-1.176-0.64-2.173-1.466-3.309-1.759c-13.211-3.409-26.439-6.758-39.68-10.058c-1.332-0.332-2.035-0.801-2.273-2.263
			c-0.521-3.2-1.261-6.364-1.932-9.539c-0.419-1.984-0.875-3.96-1.369-6.189c10.99-1.381,21.676-2.723,32.521-4.086
			c0.096-0.175,0.277-1.076,0.766-1.294c3.49-1.56,6.983-3.159,10.6-4.379c2.174-0.734,2.754-1.904,2.461-3.976
			c-0.396-2.785-0.777-5.579-0.974-8.382c-0.221-3.151-0.229-6.318-0.327-9.427c-6.109-1.158-11.838-2.244-17.982-3.409
			c0.367-4.293,0.361-8.497,1.209-12.52c0.507-2.4,0.814-4.492-0.201-6.723c-0.417-0.917-0.605-1.96-1.133-2.798
			c-0.614-0.974-1.485-1.786-2.31-2.744c-5.075-1.755-10.43-2.959-14.496,2.677c-0.263-0.533-0.447-0.908-0.664-1.349
			c-0.523,2.26-0.913,4.363-1.508,6.406c-0.814,2.803,0.222,5.211,1.931,7.106c1.897,2.104,2.443,4.244,1.866,7.025
			c-7.975-1.443-15.845-2.866-23.79-4.303c-0.128-0.824-0.112-1.802-1.829-1.475c-1.028,0.195-2.468-0.167-3.288-0.823
			c-1.736-1.388-3.227-3.097-4.726-4.757c-0.326-0.361-0.521-1.221-0.311-1.576c0.198-0.336,1.013-0.438,1.548-0.421
			c1.566,0.05,3.129,0.21,4.785,0.335c0.104-2.136,0.188-3.858,0.291-6.028c-5.11,0-9.898,0.051-14.683-0.044
			c-0.914-0.018-1.816-0.615-2.725-0.945c-2.81-0.43-5.772-0.502-8.729-0.4c-1.497,0.052-2.43-0.351-2.489-1.922
			c-2.276,0.216-4.411,0.38-6.535,0.633c-1.855,0.222-3.703,0.524-5.547,0.836c-0.439,0.074-0.855,0.312-1.271,0.499
			c-0.669,0.3-1.324,0.877-1.994,0.889c-4.367,0.081-8.736,0.042-13.35,0.042c0.346,2.345-0.814,2.469-2.254,2.403
			c-1.741-0.08-3.489-0.019-5.244-0.019c0,2.134,0,3.999,0,6.073c2.029,0,3.898,0,5.656,0c0.224,1.935,0.42,3.641,0.566,4.897
			c-2.113,0.991-3.873,1.817-5.518,2.589c0.514,1.358,0.607,2.03-0.917,2.275c-6.935,1.115-13.849,2.355-20.782,3.478
			c-0.34,0.055-1.15-0.592-1.138-0.886c0.174-3.863,0.108-7.786,0.809-11.562c0.698-3.762,0.007-7.114-2.364-10.116
			c-1.287-1.628-2.822-2.145-4.549-2.683c-0.714-0.223-1.401-0.532-2.101-0.803c-0.566,0-1.134,0-1.7,0
			c-2.421,1.287-5.649,1.232-6.875,4.695c-0.329-0.94-0.491-1.404-0.76-2.17c-0.623,2.928-1.188,5.467-1.68,8.021
			c-0.087,0.45,0.043,0.999,0.23,1.435c2.144,4.997,1.389,10.279,1.441,15.463c0.009,0.754-0.943,1.909-1.71,2.203
			c-2.048,0.786-4.223,1.266-6.374,1.752c-3.049,0.689-6.12,1.275-9.294,1.928c0,2.035-0.105,3.941,0.046,5.827
			c0.071,0.888,0.637,1.737,0.978,2.604c0.22-0.056,0.44-0.111,0.66-0.167c0,2.053,0.057,4.108-0.018,6.159
			c-0.065,1.816-0.341,3.626-0.38,5.441c-0.011,0.487,0.402,1.306,0.79,1.425c2.32,0.717,4.658,1.497,7.05,1.834
			c3.854,0.543,7.785,0.564,11.63,1.158c6.103,0.943,12.147,2.258,18.242,3.257c4.009,0.657,8.071,0.983,12.097,1.553
			c7.885,1.117,15.76,2.31,23.642,3.447c1.183,0.171,1.737,0.655,1.597,1.947c-0.404,3.692-0.727,7.394-1.076,11.038
			c-2.066,0.423-3.784,0.771-5.5,1.125c-7.371,1.523-14.746,3.024-22.109,4.583c-4.008,0.848-8.128,1.421-11.961,2.785
			c-5.81,2.068-11.411,4.721-17.104,7.118c-18.847,7.935-37.695,15.865-56.538,23.809c-0.52,0.219-0.979,0.578-1.419,0.843
			c0.391,1.583,4.573,0.849,1.879,3.695c-0.011,0.011,0.096,0.106,0.108,0.17c0.55,2.815-0.142,4.404-2.656,5.738
			c-1.604,0.851-3.31,1.513-4.921,2.353c-0.653,0.34-1.2,0.903-1.756,1.41c-0.514,0.469-0.889,1.153-1.473,1.468
			c-1.172,0.633-2.482,1.005-3.662,1.625c-0.903,0.475-1.693,1.166-2.533,1.76c1.015,0.251,2.047,0.451,3.038,0.771
			c0.7,0.227,1.84,0.53,1.918,0.956c0.186,1.018,0.59,2.196-1.071,2.912c-5.347,2.302-10.57,4.889-15.888,7.263
			c-4.421,1.973-8.889,3.846-13.377,5.661c-1.194,0.483-2.635,0.383-3.796,0.915c-2.261,1.034-4.424,2.292-6.577,3.541
			c-0.373,0.216-0.504,0.849-0.746,1.29c0.503,0.208,0.991,0.506,1.515,0.598c0.521,0.092,1.077-0.023,1.618-0.047
			c-0.144,0.677-0.355,1.011-0.636,1.084c-2.553,0.671-2.986,1.28-2.629,3.974c0.291,2.2-0.147,3.981-2.501,4.804
			c-0.294,0.103-0.774,0.523-0.743,0.584c0.684,1.367-0.548,1.115-1.104,1.242c-5.951,1.352-11.912,2.661-17.869,3.983
			c-16.443,3.65-32.897,7.253-49.322,10.984c-4.046,0.919-8,2.243-11.982,3.43c-0.428,0.128-0.804,0.548-1.122,0.905
			c-3.349,3.744-6.635,7.544-10.025,11.249c-8.802,9.618-17.622,19.22-26.512,28.755c-1.034,1.109-1.005,1.951-0.428,3.038
			c0.703-0.082,1.307-0.153,1.911-0.224c-0.31,0.695-0.77,1.054-1.273,1.333c-3.408,1.89-7.053,3.463-9.178,7.032
			c-0.178,0.298-0.479,0.52-0.714,0.784c-8.507,9.57-17.018,19.138-25.508,28.723c-0.517,0.583-0.869,1.311-1.297,1.972
			c0.103,0.16,0.205,0.321,0.308,0.482c3.207-0.491,6.413-0.982,9.62-1.474c0.125,0.228,0.25,0.455,0.375,0.683
			c-1.179,0.803-2.266,2.039-3.557,2.312c-2.3,0.485-3.628,1.26-4.421,3.67c0.541,0.239,1.087,0.48,1.851,0.817
			c-1.665,2.233-3.877,3.796-5.099,6.17c-0.207,0.402-1.254,0.35-1.897,0.556c-0.675,0.216-1.332,0.491-1.996,0.741
			c0.462,0.476,0.925,0.95,1.493,1.536c-1.756,2.34-3.43,4.684-6.99,5.229c-2.349,0.36-4.521,1.94-6.739,3.042
			c-1.371,0.681-2.602,1.734-4.032,2.184c-2.415,0.758-4.302,1.957-6.02,3.908c-12.99,14.76-26.109,29.407-39.18,44.097
			c-16.969,19.072-33.929,38.15-50.892,57.227c-2.397,2.695-4.874,5.328-7.132,8.136c-0.617,0.767-0.717,2.065-0.716,3.119
			c0.001,0.233,1.423,0.555,2.215,0.677c1.661,0.256,3.339,0.405,4.978,0.596c0.491,1.221-0.34,2.825,1.596,3.358
			c1.166,0.321,2.168,1.237,3.411,1.986c-1.614,0.827-3.142,1.608-4.522,2.316c0.479,0.819,0.855,1.46,1.328,2.267
			c-1.419,0.184-2.337,0.303-3.254,0.422c-0.022,0.177-0.046,0.354-0.068,0.53c0.58,0.261,1.16,0.521,2.358,1.058
			c-4.71,0.267-8.996,0.132-11.222,4.564c0,0.142,0,0.283,0,0.425c2.945,3.773,7.787,1.871,11.678,3.888
			c-1.539,1.944-2.98,3.815-4.486,5.633c-0.375,0.453-1.016,0.679-1.433,1.109c-0.54,0.556-1.406,1.244-1.361,1.816
			c0.072,0.913,0.565,2.279,1.254,2.57c2.364,0.998,4.891,1.612,7.088,2.291C113.926,726.134,114.61,727.671,115.295,729.208z
		"/>
	</symbol>
	<!-- Styles -->
	<g id="off" class="icon">
		<use xlink:href="#icon" class="used" />
	</g>
	<g id="on" class="icon">
		<use xlink:href="#icon" class="used" />
	</g>
</svg>